<svg xmlns="http://www.w3.org/2000/svg" xmlns:xlink="http://www.w3.org/1999/xlink" width="800" zoomAndPan="magnify" viewBox="0 0 600 599.999999" height="800" preserveAspectRatio="xMidYMid meet" version="1.0"><defs><g/><clipPath id="96eb889fad"><path d="M 370 178 L 395 178 L 395 236 L 370 236 Z M 370 178 " clip-rule="nonzero"/></clipPath><clipPath id="07022c82be"><path d="M 444.957031 141.230469 L 498.144531 221.148438 L 408.863281 280.570312 L 355.671875 200.652344 Z M 444.957031 141.230469 " clip-rule="nonzero"/></clipPath><clipPath id="a360e067ec"><path d="M 444.957031 141.230469 L 498.144531 221.148438 L 408.863281 280.570312 L 355.671875 200.652344 Z M 444.957031 141.230469 " clip-rule="nonzero"/></clipPath><clipPath id="3191e7ac82"><path d="M 392.722656 175.996094 L 417.296875 212.917969 L 380.269531 237.5625 L 355.691406 200.640625 Z M 392.722656 175.996094 " clip-rule="nonzero"/></clipPath><clipPath id="a13279f134"><path d="M 389 180 L 412 180 L 412 238 L 389 238 Z M 389 180 " clip-rule="nonzero"/></clipPath><clipPath id="a2dc753c1c"><path d="M 444.957031 141.230469 L 498.144531 221.148438 L 408.863281 280.570312 L 355.671875 200.652344 Z M 444.957031 141.230469 " clip-rule="nonzero"/></clipPath><clipPath id="678c7db1d3"><path d="M 444.957031 141.230469 L 498.144531 221.148438 L 408.863281 280.570312 L 355.671875 200.652344 Z M 444.957031 141.230469 " clip-rule="nonzero"/></clipPath><clipPath id="f8cc517831"><path d="M 421 163 L 463 163 L 463 195 L 421 195 Z M 421 163 " clip-rule="nonzero"/></clipPath><clipPath id="b18eb473dc"><path d="M 444.957031 141.230469 L 498.144531 221.148438 L 408.863281 280.570312 L 355.671875 200.652344 Z M 444.957031 141.230469 " clip-rule="nonzero"/></clipPath><clipPath id="632ea91a28"><path d="M 444.957031 141.230469 L 498.144531 221.148438 L 408.863281 280.570312 L 355.671875 200.652344 Z M 444.957031 141.230469 " clip-rule="nonzero"/></clipPath><clipPath id="b8517174d0"><path d="M 425 172 L 467 172 L 467 203 L 425 203 Z M 425 172 " clip-rule="nonzero"/></clipPath><clipPath id="4f9df779ee"><path d="M 444.957031 141.230469 L 498.144531 221.148438 L 408.863281 280.570312 L 355.671875 200.652344 Z M 444.957031 141.230469 " clip-rule="nonzero"/></clipPath><clipPath id="5d5f310dc3"><path d="M 444.957031 141.230469 L 498.144531 221.148438 L 408.863281 280.570312 L 355.671875 200.652344 Z M 444.957031 141.230469 " clip-rule="nonzero"/></clipPath><clipPath id="18eb9cb703"><path d="M 417 211 L 470 211 L 470 232 L 417 232 Z M 417 211 " clip-rule="nonzero"/></clipPath><clipPath id="b9b4d6e4f9"><path d="M 444.957031 141.230469 L 498.144531 221.148438 L 408.863281 280.570312 L 355.671875 200.652344 Z M 444.957031 141.230469 " clip-rule="nonzero"/></clipPath><clipPath id="a938c41ae3"><path d="M 444.957031 141.230469 L 498.144531 221.148438 L 408.863281 280.570312 L 355.671875 200.652344 Z M 444.957031 141.230469 " clip-rule="nonzero"/></clipPath><clipPath id="441728b789"><path d="M 416 229 L 468 229 L 468 249 L 416 249 Z M 416 229 " clip-rule="nonzero"/></clipPath><clipPath id="fa5f12d294"><path d="M 444.957031 141.230469 L 498.144531 221.148438 L 408.863281 280.570312 L 355.671875 200.652344 Z M 444.957031 141.230469 " clip-rule="nonzero"/></clipPath><clipPath id="f62e3048ed"><path d="M 444.957031 141.230469 L 498.144531 221.148438 L 408.863281 280.570312 L 355.671875 200.652344 Z M 444.957031 141.230469 " clip-rule="nonzero"/></clipPath><clipPath id="6d5ff43950"><path d="M 448.679688 208.273438 L 469.613281 239.722656 L 436.042969 262.0625 L 415.113281 230.613281 Z M 448.679688 208.273438 " clip-rule="nonzero"/></clipPath><clipPath id="a428659653"><rect x="0" width="375" y="0" height="215"/></clipPath><clipPath id="d6640570d1"><rect x="0" width="247" y="0" height="35"/></clipPath></defs><rect x="-60" width="720" fill="#ffffff" y="-60" height="719.999999" fill-opacity="1"/><rect x="-60" width="720" fill="#ffffff" y="-60" height="719.999999" fill-opacity="1"/><g clip-path="url(#96eb889fad)"><g clip-path="url(#07022c82be)"><g clip-path="url(#a360e067ec)"><g clip-path="url(#3191e7ac82)"><path fill="#88584e" d="M 389.78125 224.019531 C 390.621094 219.164062 389.167969 214.578125 387.425781 210.109375 C 385.953125 206.324219 384.800781 202.46875 385.015625 198.363281 C 385.417969 190.773438 389.351562 184.070312 394.238281 178.402344 C 384.46875 177.785156 374.515625 188.691406 371.480469 203.808594 C 368.792969 217.195312 372.378906 229.625 379.65625 234.519531 C 381.699219 235.894531 384.480469 235.25 385.816406 233.179688 C 387.625 230.375 389.1875 227.441406 389.78125 224.019531 " fill-opacity="1" fill-rule="nonzero"/></g></g></g></g><g clip-path="url(#a13279f134)"><g clip-path="url(#a2dc753c1c)"><g clip-path="url(#678c7db1d3)"><path fill="#88584e" d="M 403.707031 181.863281 C 401.816406 180.289062 398.988281 180.667969 397.453125 182.589844 C 395.277344 185.3125 393.398438 188.253906 392.058594 191.496094 C 391.882812 191.917969 391.722656 192.347656 391.566406 192.78125 C 391.542969 192.847656 391.4375 193.167969 391.414062 193.234375 C 391.355469 193.425781 391.296875 193.617188 391.238281 193.808594 C 391.007812 194.601562 390.816406 195.402344 390.667969 196.214844 C 390.527344 196.96875 390.441406 197.730469 390.371094 198.496094 C 390.371094 198.496094 390.371094 198.496094 390.371094 198.5 C 390.367188 198.566406 390.363281 198.632812 390.359375 198.699219 C 390.351562 198.875 390.347656 199.050781 390.34375 199.226562 C 390.335938 199.523438 390.335938 199.824219 390.34375 200.125 C 390.390625 202.308594 390.746094 204.125 391.410156 206.160156 C 392.054688 208.148438 392.894531 210.0625 393.59375 212.03125 C 395.359375 217.007812 396.058594 222.492188 394.460938 227.605469 C 393.640625 230.222656 392.414062 232.652344 390.945312 234.960938 C 390.488281 235.679688 390.007812 236.386719 389.527344 237.089844 C 398.765625 236.515625 407.824219 225.984375 410.695312 211.683594 C 413.230469 199.046875 410.175781 187.261719 403.707031 181.863281 " fill-opacity="1" fill-rule="nonzero"/></g></g></g><g clip-path="url(#f8cc517831)"><g clip-path="url(#b18eb473dc)"><g clip-path="url(#632ea91a28)"><path fill="#88584e" d="M 433.65625 191.765625 C 436.949219 189.445312 438.757812 185.957031 440.335938 182.363281 C 441.671875 179.324219 443.234375 176.429688 445.734375 174.179688 C 450.351562 170.027344 456.503906 168.425781 462.605469 167.972656 C 457.3125 161.96875 445.257812 162.519531 434.761719 169.507812 C 425.46875 175.691406 420.355469 184.949219 421.734375 191.988281 C 422.121094 193.960938 424.101562 195.195312 426.066406 194.769531 C 428.738281 194.195312 431.335938 193.402344 433.65625 191.765625 " fill-opacity="1" fill-rule="nonzero"/></g></g></g><g clip-path="url(#b8517174d0)"><g clip-path="url(#4f9df779ee)"><g clip-path="url(#5d5f310dc3)"><path fill="#88584e" d="M 466.078125 175.445312 C 465.894531 173.445312 464.039062 172.027344 462.042969 172.253906 C 459.210938 172.570312 456.425781 173.183594 453.777344 174.28125 C 453.429688 174.425781 453.085938 174.582031 452.746094 174.742188 C 452.695312 174.765625 452.449219 174.886719 452.398438 174.914062 C 452.253906 174.988281 452.109375 175.066406 451.964844 175.144531 C 451.375 175.46875 450.796875 175.824219 450.242188 176.203125 C 449.726562 176.5625 449.238281 176.953125 448.753906 177.351562 C 448.75 177.355469 448.75 177.355469 448.75 177.355469 C 448.710938 177.394531 448.667969 177.429688 448.628906 177.464844 C 448.523438 177.5625 448.417969 177.660156 448.316406 177.757812 C 448.136719 177.929688 447.964844 178.101562 447.792969 178.277344 C 446.5625 179.570312 445.714844 180.824219 444.921875 182.382812 C 444.148438 183.90625 443.523438 185.5 442.789062 187.042969 C 440.933594 190.9375 438.167969 194.515625 434.285156 196.546875 C 432.300781 197.582031 430.1875 198.28125 428.007812 198.765625 C 427.324219 198.917969 426.640625 199.050781 425.953125 199.175781 C 431.628906 204.183594 442.949219 203.332031 452.878906 196.726562 C 461.648438 190.886719 466.695312 182.308594 466.078125 175.445312 " fill-opacity="1" fill-rule="nonzero"/></g></g></g><g clip-path="url(#18eb9cb703)"><g clip-path="url(#b9b4d6e4f9)"><g clip-path="url(#a938c41ae3)"><path fill="#88584e" d="M 428.367188 229.496094 C 432.773438 230.085938 436.855469 228.621094 440.824219 226.902344 C 444.183594 225.445312 447.621094 224.273438 451.328125 224.332031 C 458.179688 224.433594 464.355469 227.753906 469.628906 231.964844 C 469.855469 223.140625 459.6875 214.542969 445.960938 212.320312 C 433.804688 210.351562 422.726562 214.003906 418.558594 220.730469 C 417.390625 222.617188 418.066406 225.101562 419.976562 226.234375 C 422.566406 227.769531 425.265625 229.078125 428.367188 229.496094 " fill-opacity="1" fill-rule="nonzero"/></g></g></g><g clip-path="url(#441728b789)"><g clip-path="url(#fa5f12d294)"><g clip-path="url(#f62e3048ed)"><g clip-path="url(#6d5ff43950)"><path fill="#88584e" d="M 466.832031 240.613281 C 468.1875 238.859375 467.75 236.320312 465.964844 235.003906 C 463.4375 233.136719 460.722656 231.542969 457.753906 230.445312 C 457.367188 230.300781 456.976562 230.167969 456.582031 230.042969 C 456.519531 230.027344 456.226562 229.941406 456.167969 229.921875 C 455.992188 229.875 455.820312 229.828125 455.644531 229.785156 C 454.921875 229.601562 454.191406 229.457031 453.457031 229.351562 C 452.769531 229.253906 452.082031 229.199219 451.390625 229.160156 C 451.386719 229.160156 451.386719 229.160156 451.386719 229.160156 C 451.324219 229.160156 451.265625 229.160156 451.203125 229.15625 C 451.046875 229.15625 450.890625 229.15625 450.730469 229.160156 C 450.460938 229.164062 450.191406 229.175781 449.921875 229.191406 C 447.953125 229.308594 446.328125 229.691406 444.519531 230.355469 C 442.75 231.007812 441.050781 231.828125 439.300781 232.523438 C 434.878906 234.285156 429.957031 235.101562 425.292969 233.832031 C 422.910156 233.183594 420.679688 232.164062 418.550781 230.917969 C 417.882812 230.53125 417.230469 230.121094 416.582031 229.710938 C 417.414062 238.015625 427.210938 245.820312 440.195312 247.925781 C 451.667969 249.78125 462.1875 246.628906 466.832031 240.613281 " fill-opacity="1" fill-rule="nonzero"/></g></g></g></g><g transform="matrix(1, 0, 0, 1, 108, 192)"><g clip-path="url(#a428659653)"><g fill="#322f30" fill-opacity="1"><g transform="translate(2.600832, 153.790066)"><g><path d="M 62.078125 -143.265625 C 69.703125 -143.265625 77.148438 -142.15625 84.421875 -139.9375 C 91.703125 -137.726562 97.101562 -135.539062 100.625 -133.375 L 105.75 -129.96875 L 92.78125 -104.390625 C 91.757812 -105.066406 90.335938 -105.941406 88.515625 -107.015625 C 86.703125 -108.097656 83.289062 -109.550781 78.28125 -111.375 C 73.28125 -113.195312 68.617188 -114.109375 64.296875 -114.109375 C 58.953125 -114.109375 54.832031 -112.96875 51.9375 -110.6875 C 49.039062 -108.414062 47.59375 -105.347656 47.59375 -101.484375 C 47.59375 -99.546875 48.273438 -97.753906 49.640625 -96.109375 C 51.003906 -94.460938 53.332031 -92.703125 56.625 -90.828125 C 59.925781 -88.953125 62.828125 -87.441406 65.328125 -86.296875 C 67.828125 -85.160156 71.691406 -83.457031 76.921875 -81.1875 C 86.015625 -77.320312 93.773438 -72.0625 100.203125 -65.40625 C 106.628906 -58.757812 109.84375 -51.226562 109.84375 -42.8125 C 109.84375 -34.738281 108.390625 -27.6875 105.484375 -21.65625 C 102.585938 -15.632812 98.609375 -10.914062 93.546875 -7.5 C 88.492188 -4.09375 82.894531 -1.566406 76.75 0.078125 C 70.613281 1.734375 63.960938 2.5625 56.796875 2.5625 C 50.660156 2.5625 44.632812 1.9375 38.71875 0.6875 C 32.800781 -0.5625 27.851562 -2.125 23.875 -4 C 19.894531 -5.882812 16.3125 -7.734375 13.125 -9.546875 C 9.945312 -11.367188 7.617188 -12.90625 6.140625 -14.15625 L 3.921875 -16.03125 L 19.953125 -42.984375 C 21.316406 -41.847656 23.191406 -40.394531 25.578125 -38.625 C 27.972656 -36.863281 32.210938 -34.503906 38.296875 -31.546875 C 44.378906 -28.597656 49.75 -27.125 54.40625 -27.125 C 67.9375 -27.125 74.703125 -31.726562 74.703125 -40.9375 C 74.703125 -42.863281 74.21875 -44.648438 73.25 -46.296875 C 72.289062 -47.953125 70.585938 -49.601562 68.140625 -51.25 C 65.691406 -52.90625 63.53125 -54.210938 61.65625 -55.171875 C 59.78125 -56.140625 56.707031 -57.617188 52.4375 -59.609375 C 48.175781 -61.597656 45.023438 -63.101562 42.984375 -64.125 C 34.453125 -68.332031 27.851562 -73.59375 23.1875 -79.90625 C 18.53125 -86.21875 16.203125 -93.015625 16.203125 -100.296875 C 16.203125 -112.910156 20.863281 -123.222656 30.1875 -131.234375 C 39.507812 -139.253906 50.140625 -143.265625 62.078125 -143.265625 Z M 62.078125 -143.265625 "/></g></g></g><g fill="#322f30" fill-opacity="1"><g transform="translate(102.70749, 153.790066)"><g><path d="M 38.71875 -87.5 L 38.71875 -45.875 C 38.71875 -37.238281 40.023438 -31.097656 42.640625 -27.453125 C 45.253906 -23.816406 49.6875 -22 55.9375 -22 C 62.195312 -22 66.632812 -23.816406 69.25 -27.453125 C 71.863281 -31.097656 73.171875 -37.238281 73.171875 -45.875 L 73.171875 -87.5 L 103.359375 -87.5 L 103.359375 -38.546875 C 103.359375 -23.992188 99.578125 -13.503906 92.015625 -7.078125 C 84.453125 -0.648438 72.425781 2.5625 55.9375 2.5625 C 39.457031 2.5625 27.4375 -0.648438 19.875 -7.078125 C 12.3125 -13.503906 8.53125 -23.992188 8.53125 -38.546875 L 8.53125 -87.5 Z M 38.71875 -87.5 "/></g></g></g><g fill="#322f30" fill-opacity="1"><g transform="translate(200.085441, 153.790066)"><g><path d="M 48.265625 -90.0625 C 53.273438 -90.0625 58.222656 -89.488281 63.109375 -88.34375 C 67.992188 -87.207031 71.632812 -86.070312 74.03125 -84.9375 L 77.609375 -83.234375 L 67.71875 -63.453125 C 60.894531 -67.085938 54.410156 -68.90625 48.265625 -68.90625 C 44.859375 -68.90625 42.441406 -68.535156 41.015625 -67.796875 C 39.597656 -67.054688 38.890625 -65.664062 38.890625 -63.625 C 38.890625 -63.164062 38.945312 -62.707031 39.0625 -62.25 C 39.175781 -61.800781 39.398438 -61.375 39.734375 -60.96875 C 40.078125 -60.570312 40.390625 -60.234375 40.671875 -59.953125 C 40.960938 -59.671875 41.445312 -59.359375 42.125 -59.015625 C 42.8125 -58.671875 43.351562 -58.410156 43.75 -58.234375 C 44.144531 -58.066406 44.796875 -57.8125 45.703125 -57.46875 C 46.617188 -57.132812 47.300781 -56.878906 47.75 -56.703125 C 48.207031 -56.535156 48.976562 -56.28125 50.0625 -55.9375 C 51.144531 -55.601562 51.96875 -55.378906 52.53125 -55.265625 C 56.0625 -54.242188 59.132812 -53.101562 61.75 -51.84375 C 64.363281 -50.59375 67.117188 -48.890625 70.015625 -46.734375 C 72.910156 -44.578125 75.15625 -41.847656 76.75 -38.546875 C 78.34375 -35.242188 79.140625 -31.492188 79.140625 -27.296875 C 79.140625 -7.390625 65.320312 2.5625 37.6875 2.5625 C 31.4375 2.5625 25.492188 1.597656 19.859375 -0.328125 C 14.234375 -2.265625 10.171875 -4.203125 7.671875 -6.140625 L 3.921875 -9.203125 L 16.203125 -29.84375 C 17.109375 -29.050781 18.300781 -28.113281 19.78125 -27.03125 C 21.257812 -25.945312 23.929688 -24.46875 27.796875 -22.59375 C 31.660156 -20.71875 35.015625 -19.78125 37.859375 -19.78125 C 44.117188 -19.78125 47.25 -21.882812 47.25 -26.09375 C 47.25 -28.03125 46.453125 -29.535156 44.859375 -30.609375 C 43.265625 -31.691406 40.5625 -32.914062 36.75 -34.28125 C 32.945312 -35.644531 29.960938 -36.894531 27.796875 -38.03125 C 22.335938 -40.875 18.015625 -44.085938 14.828125 -47.671875 C 11.648438 -51.253906 10.0625 -56.003906 10.0625 -61.921875 C 10.0625 -70.785156 13.5 -77.691406 20.375 -82.640625 C 27.257812 -87.585938 36.554688 -90.0625 48.265625 -90.0625 Z M 48.265625 -90.0625 "/></g></g></g><g fill="#322f30" fill-opacity="1"><g transform="translate(269.494421, 153.790066)"><g><path d="M 38.71875 -87.5 L 38.71875 -45.875 C 38.71875 -37.238281 40.023438 -31.097656 42.640625 -27.453125 C 45.253906 -23.816406 49.6875 -22 55.9375 -22 C 62.195312 -22 66.632812 -23.816406 69.25 -27.453125 C 71.863281 -31.097656 73.171875 -37.238281 73.171875 -45.875 L 73.171875 -87.5 L 103.359375 -87.5 L 103.359375 -38.546875 C 103.359375 -23.992188 99.578125 -13.503906 92.015625 -7.078125 C 84.453125 -0.648438 72.425781 2.5625 55.9375 2.5625 C 39.457031 2.5625 27.4375 -0.648438 19.875 -7.078125 C 12.3125 -13.503906 8.53125 -23.992188 8.53125 -38.546875 L 8.53125 -87.5 Z M 38.71875 -87.5 "/></g></g></g></g></g><g transform="matrix(1, 0, 0, 1, 180, 358)"><g clip-path="url(#d6640570d1)"><g fill="#322f30" fill-opacity="1"><g transform="translate(1.707445, 25.471447)"><g><path d="M 9.5625 0.296875 C 8.375 0.296875 7.273438 0.0859375 6.265625 -0.328125 C 5.265625 -0.742188 4.394531 -1.328125 3.65625 -2.078125 C 2.914062 -2.828125 2.34375 -3.71875 1.9375 -4.75 C 1.539062 -5.78125 1.34375 -6.90625 1.34375 -8.125 C 1.34375 -9.34375 1.539062 -10.46875 1.9375 -11.5 C 2.34375 -12.53125 2.914062 -13.421875 3.65625 -14.171875 C 4.394531 -14.921875 5.265625 -15.503906 6.265625 -15.921875 C 7.273438 -16.347656 8.375 -16.5625 9.5625 -16.5625 C 10.851562 -16.5625 12.035156 -16.320312 13.109375 -15.84375 C 14.179688 -15.375 15.097656 -14.703125 15.859375 -13.828125 C 16.628906 -12.953125 17.191406 -11.921875 17.546875 -10.734375 L 15.375 -10.734375 C 14.957031 -11.898438 14.234375 -12.820312 13.203125 -13.5 C 12.171875 -14.175781 10.984375 -14.515625 9.640625 -14.515625 C 8.429688 -14.515625 7.359375 -14.242188 6.421875 -13.703125 C 5.492188 -13.160156 4.765625 -12.40625 4.234375 -11.4375 C 3.703125 -10.476562 3.4375 -9.375 3.4375 -8.125 C 3.4375 -6.875 3.703125 -5.765625 4.234375 -4.796875 C 4.765625 -3.835938 5.492188 -3.085938 6.421875 -2.546875 C 7.359375 -2.003906 8.429688 -1.734375 9.640625 -1.734375 C 11.015625 -1.734375 12.234375 -2.085938 13.296875 -2.796875 C 14.367188 -3.515625 15.113281 -4.488281 15.53125 -5.71875 L 17.6875 -5.71875 C 17.363281 -4.507812 16.8125 -3.453125 16.03125 -2.546875 C 15.25 -1.648438 14.304688 -0.953125 13.203125 -0.453125 C 12.097656 0.046875 10.882812 0.296875 9.5625 0.296875 Z M 9.5625 0.296875 "/></g></g></g><g fill="#322f30" fill-opacity="1"><g transform="translate(27.813861, 25.471447)"><g><path d="M 9.75 0.296875 C 8.113281 0.296875 6.660156 -0.0625 5.390625 -0.78125 C 4.117188 -1.5 3.125 -2.492188 2.40625 -3.765625 C 1.695312 -5.035156 1.34375 -6.488281 1.34375 -8.125 C 1.34375 -9.78125 1.695312 -11.238281 2.40625 -12.5 C 3.125 -13.757812 4.117188 -14.75 5.390625 -15.46875 C 6.660156 -16.195312 8.113281 -16.5625 9.75 -16.5625 C 11.40625 -16.5625 12.863281 -16.195312 14.125 -15.46875 C 15.382812 -14.75 16.375 -13.757812 17.09375 -12.5 C 17.820312 -11.238281 18.1875 -9.78125 18.1875 -8.125 C 18.1875 -6.488281 17.820312 -5.035156 17.09375 -3.765625 C 16.375 -2.492188 15.382812 -1.5 14.125 -0.78125 C 12.863281 -0.0625 11.40625 0.296875 9.75 0.296875 Z M 3.4375 -8.125 C 3.4375 -6.875 3.703125 -5.765625 4.234375 -4.796875 C 4.765625 -3.835938 5.503906 -3.085938 6.453125 -2.546875 C 7.410156 -2.003906 8.507812 -1.734375 9.75 -1.734375 C 11 -1.734375 12.097656 -2.003906 13.046875 -2.546875 C 13.992188 -3.085938 14.734375 -3.835938 15.265625 -4.796875 C 15.796875 -5.765625 16.0625 -6.875 16.0625 -8.125 C 16.0625 -9.394531 15.796875 -10.503906 15.265625 -11.453125 C 14.734375 -12.410156 13.992188 -13.160156 13.046875 -13.703125 C 12.097656 -14.242188 11 -14.515625 9.75 -14.515625 C 8.507812 -14.515625 7.410156 -14.242188 6.453125 -13.703125 C 5.503906 -13.160156 4.765625 -12.410156 4.234375 -11.453125 C 3.703125 -10.503906 3.4375 -9.394531 3.4375 -8.125 Z M 3.4375 -8.125 "/></g></g></g><g fill="#322f30" fill-opacity="1"><g transform="translate(54.477108, 25.471447)"><g><path d="M 2.375 0 L 2.375 -16.25 L 11.671875 -16.25 L 11.671875 -14.34375 L 4.40625 -14.34375 L 4.40625 -8.734375 L 11.078125 -8.734375 L 11.078125 -6.84375 L 4.40625 -6.84375 L 4.40625 0 Z M 2.375 0 "/></g></g></g><g fill="#322f30" fill-opacity="1"><g transform="translate(74.597666, 25.471447)"><g><path d="M 2.375 0 L 2.375 -16.25 L 11.671875 -16.25 L 11.671875 -14.34375 L 4.40625 -14.34375 L 4.40625 -8.734375 L 11.078125 -8.734375 L 11.078125 -6.84375 L 4.40625 -6.84375 L 4.40625 0 Z M 2.375 0 "/></g></g></g><g fill="#322f30" fill-opacity="1"><g transform="translate(94.718223, 25.471447)"><g><path d="M 2.375 0 L 2.375 -16.25 L 12.234375 -16.25 L 12.234375 -14.34375 L 4.40625 -14.34375 L 4.40625 -9.21875 L 11.65625 -9.21875 L 11.65625 -7.34375 L 4.40625 -7.34375 L 4.40625 -1.90625 L 12.484375 -1.90625 L 12.484375 0 Z M 2.375 0 "/></g></g></g><g fill="#322f30" fill-opacity="1"><g transform="translate(115.882823, 25.471447)"><g><path d="M 2.375 0 L 2.375 -16.25 L 12.234375 -16.25 L 12.234375 -14.34375 L 4.40625 -14.34375 L 4.40625 -9.21875 L 11.65625 -9.21875 L 11.65625 -7.34375 L 4.40625 -7.34375 L 4.40625 -1.90625 L 12.484375 -1.90625 L 12.484375 0 Z M 2.375 0 "/></g></g></g><g fill="#322f30" fill-opacity="1"><g transform="translate(137.047423, 25.471447)"><g/></g></g><g fill="#322f30" fill-opacity="1"><g transform="translate(149.975697, 25.471447)"><g><path d="M 7.78125 0.296875 C 6.476562 0.296875 5.347656 0.078125 4.390625 -0.359375 C 3.441406 -0.796875 2.707031 -1.410156 2.1875 -2.203125 C 1.675781 -3.003906 1.410156 -3.929688 1.390625 -4.984375 L 3.4375 -4.984375 C 3.46875 -3.953125 3.878906 -3.140625 4.671875 -2.546875 C 5.472656 -1.953125 6.507812 -1.65625 7.78125 -1.65625 C 8.925781 -1.65625 9.832031 -1.878906 10.5 -2.328125 C 11.175781 -2.773438 11.515625 -3.398438 11.515625 -4.203125 C 11.515625 -4.960938 11.1875 -5.566406 10.53125 -6.015625 C 9.882812 -6.472656 8.828125 -6.875 7.359375 -7.21875 C 5.359375 -7.695312 3.894531 -8.3125 2.96875 -9.0625 C 2.039062 -9.8125 1.578125 -10.816406 1.578125 -12.078125 C 1.578125 -13.453125 2.097656 -14.539062 3.140625 -15.34375 C 4.191406 -16.15625 5.609375 -16.5625 7.390625 -16.5625 C 9.210938 -16.5625 10.648438 -16.101562 11.703125 -15.1875 C 12.765625 -14.269531 13.304688 -13.023438 13.328125 -11.453125 L 11.3125 -11.453125 C 11.289062 -12.421875 10.925781 -13.1875 10.21875 -13.75 C 9.519531 -14.320312 8.578125 -14.609375 7.390625 -14.609375 C 6.222656 -14.609375 5.3125 -14.378906 4.65625 -13.921875 C 4 -13.460938 3.671875 -12.847656 3.671875 -12.078125 C 3.671875 -11.410156 3.972656 -10.847656 4.578125 -10.390625 C 5.191406 -9.929688 6.289062 -9.507812 7.875 -9.125 C 9.945312 -8.613281 11.421875 -7.972656 12.296875 -7.203125 C 13.179688 -6.441406 13.625 -5.460938 13.625 -4.265625 C 13.625 -2.859375 13.09375 -1.742188 12.03125 -0.921875 C 10.976562 -0.109375 9.5625 0.296875 7.78125 0.296875 Z M 7.78125 0.296875 "/></g></g></g><g fill="#322f30" fill-opacity="1"><g transform="translate(172.161144, 25.471447)"><g><path d="M 13.03125 0 L 13.03125 -7.3125 L 4.40625 -7.3125 L 4.40625 0 L 2.375 0 L 2.375 -16.25 L 4.40625 -16.25 L 4.40625 -9.265625 L 13.03125 -9.265625 L 13.03125 -16.25 L 15.0625 -16.25 L 15.0625 0 Z M 13.03125 0 "/></g></g></g><g fill="#322f30" fill-opacity="1"><g transform="translate(196.759503, 25.471447)"><g><path d="M 9.75 0.296875 C 8.113281 0.296875 6.660156 -0.0625 5.390625 -0.78125 C 4.117188 -1.5 3.125 -2.492188 2.40625 -3.765625 C 1.695312 -5.035156 1.34375 -6.488281 1.34375 -8.125 C 1.34375 -9.78125 1.695312 -11.238281 2.40625 -12.5 C 3.125 -13.757812 4.117188 -14.75 5.390625 -15.46875 C 6.660156 -16.195312 8.113281 -16.5625 9.75 -16.5625 C 11.40625 -16.5625 12.863281 -16.195312 14.125 -15.46875 C 15.382812 -14.75 16.375 -13.757812 17.09375 -12.5 C 17.820312 -11.238281 18.1875 -9.78125 18.1875 -8.125 C 18.1875 -6.488281 17.820312 -5.035156 17.09375 -3.765625 C 16.375 -2.492188 15.382812 -1.5 14.125 -0.78125 C 12.863281 -0.0625 11.40625 0.296875 9.75 0.296875 Z M 3.4375 -8.125 C 3.4375 -6.875 3.703125 -5.765625 4.234375 -4.796875 C 4.765625 -3.835938 5.503906 -3.085938 6.453125 -2.546875 C 7.410156 -2.003906 8.507812 -1.734375 9.75 -1.734375 C 11 -1.734375 12.097656 -2.003906 13.046875 -2.546875 C 13.992188 -3.085938 14.734375 -3.835938 15.265625 -4.796875 C 15.796875 -5.765625 16.0625 -6.875 16.0625 -8.125 C 16.0625 -9.394531 15.796875 -10.503906 15.265625 -11.453125 C 14.734375 -12.410156 13.992188 -13.160156 13.046875 -13.703125 C 12.097656 -14.242188 11 -14.515625 9.75 -14.515625 C 8.507812 -14.515625 7.410156 -14.242188 6.453125 -13.703125 C 5.503906 -13.160156 4.765625 -12.410156 4.234375 -11.453125 C 3.703125 -10.503906 3.4375 -9.394531 3.4375 -8.125 Z M 3.4375 -8.125 "/></g></g></g><g fill="#322f30" fill-opacity="1"><g transform="translate(223.42275, 25.471447)"><g><path d="M 2.375 0 L 2.375 -16.25 L 7.875 -16.25 C 9.09375 -16.25 10.15625 -16.023438 11.0625 -15.578125 C 11.96875 -15.128906 12.664062 -14.5 13.15625 -13.6875 C 13.65625 -12.875 13.90625 -11.910156 13.90625 -10.796875 C 13.90625 -9.679688 13.65625 -8.71875 13.15625 -7.90625 C 12.664062 -7.09375 11.96875 -6.460938 11.0625 -6.015625 C 10.15625 -5.566406 9.09375 -5.34375 7.875 -5.34375 L 4.40625 -5.34375 L 4.40625 0 Z M 4.40625 -7.25 L 7.828125 -7.25 C 10.484375 -7.25 11.8125 -8.425781 11.8125 -10.78125 C 11.8125 -13.125 10.484375 -14.296875 7.828125 -14.296875 L 4.40625 -14.296875 Z M 4.40625 -7.25 "/></g></g></g></g></g></svg>